<?xml version="1.0" standalone="no"?>
<!DOCTYPE svg PUBLIC "-//W3C//DTD SVG 20010904//EN"
 "http://www.w3.org/TR/2001/REC-SVG-20010904/DTD/svg10.dtd">
<svg version="1.0" xmlns="http://www.w3.org/2000/svg"
 width="478.000000pt" height="478.000000pt" viewBox="0 0 478.000000 478.000000"
 preserveAspectRatio="xMidYMid meet">
<metadata>
Created by potrace 1.11, written by Peter Selinger 2001-2013
</metadata>
<g transform="translate(0.000000,478.000000) scale(0.100000,-0.100000)"
fill="#000000" stroke="none">
<path d="M3770 2945 l0 -25 420 0 420 0 0 25 0 25 -420 0 -420 0 0 -25z"/>
<path d="M3960 2835 l0 -25 325 0 325 0 0 25 0 25 -325 0 -325 0 0 -25z"/>
<path d="M4180 2725 l0 -25 215 0 215 0 0 25 0 25 -215 0 -215 0 0 -25z"/>
<path d="M4280 2615 l0 -25 165 0 165 0 0 25 0 25 -165 0 -165 0 0 -25z"/>
<path d="M139 2420 c-1 -3 -2 -26 -3 -52 -2 -54 -10 -50 104 -49 82 0 77 16
78 -227 0 -119 1 -223 1 -229 1 -9 21 -13 66 -13 l65 0 0 234 0 235 88 -2 87
-1 3 55 3 55 -246 -1 c-135 0 -246 -2 -246 -5z"/>
<path d="M722 2416 c-4 -6 -7 -136 -7 -288 l0 -278 67 0 68 0 0 80 0 80 59 0
60 0 57 -80 58 -80 68 0 c53 0 67 3 62 13 -4 6 -32 47 -62 90 -29 43 -52 80
-50 81 1 1 18 13 37 26 43 30 71 91 71 158 0 92 -52 162 -145 193 -51 16 -333
20 -343 5z m309 -116 c31 -14 49 -48 49 -91 0 -35 -47 -88 -79 -90 -12 -1 -49
-2 -83 -3 l-63 -1 -5 65 c-3 36 -3 82 -1 102 l3 38 77 -4 c42 -2 88 -9 102
-16z"/>
<path d="M1326 2421 c-2 -3 -4 -87 -3 -186 0 -245 20 -306 121 -366 34 -20 54
-23 135 -24 111 0 157 18 209 81 44 54 55 114 56 318 l0 181 -54 1 c-30 0 -61
-2 -67 -4 -10 -3 -13 -50 -13 -189 0 -240 -13 -272 -118 -278 -58 -4 -87 10
-114 53 -20 32 -22 50 -24 221 -1 102 -2 189 -3 192 0 3 -28 5 -62 5 -33 0
-62 -2 -63 -5z"/>
<path d="M1986 2421 c-2 -4 -4 -133 -4 -288 l-1 -283 210 0 c132 0 209 4 210
10 0 6 1 26 1 45 0 19 -1 39 -1 45 -1 5 -43 9 -98 9 -54 0 -118 0 -143 0 l-45
1 0 226 c0 124 -2 229 -5 233 -6 8 -120 10 -124 2z"/>
<path d="M2350 2423 c0 -2 50 -85 110 -185 l110 -183 0 -102 0 -103 65 0 c36
0 65 3 66 8 0 4 1 50 2 102 l1 95 107 179 c60 99 106 182 104 186 -3 5 -86 6
-117 1 -4 -1 -39 -55 -79 -121 -39 -66 -74 -120 -78 -120 -3 0 -39 56 -78 123
l-73 123 -70 0 c-38 -1 -70 -2 -70 -3z"/>
<path d="M2989 2426 c0 -1 0 -480 0 -533 l1 -43 65 0 65 0 0 80 0 80 90 0
c139 0 216 35 254 115 37 77 21 177 -36 232 -55 54 -103 65 -280 67 -87 1
-158 2 -159 2z m297 -115 c6 0 23 -13 38 -27 20 -20 26 -36 26 -68 -1 -73 -39
-99 -152 -101 l-78 -1 0 102 0 101 78 -2 c42 -1 82 -3 88 -4z"/>
<path d="M3735 2406 c-15 -23 -245 -540 -245 -550 0 -4 30 -6 67 -4 l67 3 21
52 c11 28 23 54 26 57 4 4 184 9 245 7 16 -1 28 -16 47 -61 l26 -60 70 0 69 0
-128 287 -128 287 -62 2 c-52 1 -63 -1 -75 -20z m124 -245 c17 -40 31 -77 31
-82 0 -5 -38 -9 -85 -8 -83 1 -85 2 -79 23 6 19 38 101 67 168 l11 26 12 -26
c7 -15 27 -60 43 -101z"/>
<path d="M4090 2419 c0 -4 48 -87 108 -186 l107 -178 0 -103 0 -102 66 0 66 0
1 103 0 102 106 177 c58 97 106 180 106 185 0 5 -27 9 -60 9 l-60 -1 -77 -128
-76 -128 -76 128 -77 127 -67 1 c-37 1 -67 -2 -67 -6z"/>
</g>
</svg>
