<?xml version="1.0"?>
<svg xmlns="http://www.w3.org/2000/svg" xmlns:xlink="http://www.w3.org/1999/xlink" version="1.1" id="Layer_1" x="0px" y="0px" viewBox="0 0 470 470" style="enable-background:new 0 0 470 470;" xml:space="preserve" width="512px" height="512px" class=""><g><g>
	<g>
		<g>
			<path d="M197.945,133.781c-34.002-23.38-79.25-22.763-112.595,1.533c-3.348,2.439-4.084,7.131-1.645,10.479     c1.468,2.015,3.752,3.084,6.068,3.084c1.532,0,3.078-0.469,4.411-1.439c28.211-20.556,66.494-21.079,95.262-1.297     c3.414,2.347,8.083,1.483,10.43-1.931C202.223,140.797,201.358,136.128,197.945,133.781z" data-original="#000000" class="active-path" data-old_color="#000000" fill="#0385E1"/>
			<path d="M177.736,160.474c-21.796-14.987-50.802-14.594-72.178,0.982c-3.348,2.439-4.084,7.131-1.645,10.479     c1.468,2.015,3.752,3.084,6.068,3.084c1.532,0,3.078-0.468,4.41-1.439c16.244-11.835,38.284-12.134,54.846-0.746     c3.414,2.346,8.083,1.483,10.43-1.931C182.015,167.49,181.15,162.821,177.736,160.474z" data-original="#000000" class="active-path" data-old_color="#000000" fill="#0385E1"/>
			<path d="M157.906,189.313c-4.541-3.121-9.919-4.771-15.555-4.771c-5.83,0-11.576,1.848-16.181,5.202     c-3.348,2.438-4.084,7.13-1.646,10.478c1.468,2.016,3.752,3.085,6.068,3.085c1.533-0.001,3.078-0.468,4.411-1.44     c2.058-1.499,4.667-2.325,7.348-2.325c2.551,0,5.058,0.758,7.058,2.133c3.414,2.348,8.083,1.481,10.429-1.932     C162.184,196.329,161.319,191.66,157.906,189.313z" data-original="#000000" class="active-path" data-old_color="#000000" fill="#0385E1"/>
			<path d="M335.232,30c-4.142,0-7.5,3.357-7.5,7.5v18c0,4.143,3.358,7.5,7.5,7.5c4.142,0,7.5-3.357,7.5-7.5v-18     C342.732,33.357,339.375,30,335.232,30z" data-original="#000000" class="active-path" data-old_color="#000000" fill="#0385E1"/>
			<path d="M365.232,30c-4.142,0-7.5,3.357-7.5,7.5v18c0,4.143,3.358,7.5,7.5,7.5c4.142,0,7.5-3.357,7.5-7.5v-18     C372.732,33.357,369.375,30,365.232,30z" data-original="#000000" class="active-path" data-old_color="#000000" fill="#0385E1"/>
			<path d="M410.232,78h-7.5V7.5c0-4.143-3.358-7.5-7.5-7.5h-90c-4.142,0-7.5,3.357-7.5,7.5V78h-7.5c-4.142,0-7.5,3.357-7.5,7.5v90     c0,19.837,15.484,36.126,35,37.418V260.5c0,4.143,3.358,7.5,7.5,7.5h2.5v75.75c0,44.802-36.449,81.25-81.25,81.25     c-44.801,0-81.25-36.448-81.25-81.25V320h58.463c4.142,0,7.5-3.357,7.5-7.5V7.5c0-4.143-3.358-7.5-7.5-7.5H59.768     c-4.142,0-7.5,3.357-7.5,7.5v305c0,4.143,3.358,7.5,7.5,7.5h60.465v23.75c0,69.614,56.636,126.25,126.25,126.25     s126.25-56.636,126.25-126.25V268h2.5c4.142,0,7.5-3.357,7.5-7.5v-47.582c19.516-1.292,35-17.581,35-37.418v-90     C417.732,81.357,414.375,78,410.232,78z M312.732,15h75v63h-75V15z M67.268,305V15h148.928v290H67.268z M357.732,343.75     c0,61.344-49.907,111.25-111.25,111.25c-61.343,0-111.25-49.906-111.25-111.25V320h15v23.75c0,53.072,43.178,96.25,96.25,96.25     c53.072,0,96.25-43.178,96.25-96.25V268h15V343.75z M402.732,175.5c0,12.406-10.093,22.5-22.5,22.5h-25     c-4.142,0-7.5,3.357-7.5,7.5s3.358,7.5,7.5,7.5h12.5v40h-35v-47.5c0-4.143-3.358-7.5-7.5-7.5h-5c-12.407,0-22.5-10.094-22.5-22.5     V93h105V175.5z" data-original="#000000" class="active-path" data-old_color="#000000" fill="#0385E1"/>
		</g>
	</g>
</g></g> </svg>
