<?xml version="1.0"?>
<svg xmlns="http://www.w3.org/2000/svg" height="512px" viewBox="0 0 64 64" width="512px"><g><path d="m55 34h-3.485l-8.505-11.907a5.014 5.014 0 0 0 -4.069-2.093h-6.941v-7a1 1 0 0 0 -1-1h-5v-5a1 1 0 0 0 -1-1h-16a1 1 0 0 0 -1 1v5h-5a1 1 0 0 0 -1 1v36a3 3 0 0 0 3 3h3.08a6.991 6.991 0 0 0 13.84 0h20.16a6.991 6.991 0 0 0 13.84 0h3.08a3 3 0 0 0 3-3v-8a7.008 7.008 0 0 0 -7-7zm5 7v1h-4v-2h3.9a5 5 0 0 1 .1 1zm-18.617-17.744 7.674 10.744h-13.057v-12h2.941a3.01 3.01 0 0 1 2.442 1.256zm-31.383-15.256h14v9.4a8.964 8.964 0 0 1 -4.135 7.572l-2.865 1.84-2.865-1.842a8.964 8.964 0 0 1 -4.135-7.57zm-2 6v3.4a10.958 10.958 0 0 0 5.053 9.255l3.406 2.188a1 1 0 0 0 1.082 0l3.406-2.188a10.958 10.958 0 0 0 5.053-9.255v-3.4h4v20h-26v-20zm-4 26h1v2h-1zm0 9v-1h3v-2h-3v-2h1a2 2 0 0 0 2-2v-2a2 2 0 0 0 -2-2h-1v-2h27a1 1 0 0 0 1-1v-13h2v28h-12.08a6.991 6.991 0 0 0 -13.84 0h-3.08a1 1 0 0 1 -1-1zm11 7a5 5 0 1 1 5-5 5.006 5.006 0 0 1 -5 5zm34 0a5 5 0 1 1 5-5 5.006 5.006 0 0 1 -5 5zm10-6h-3.08a6.991 6.991 0 0 0 -13.84 0h-6.08v-14h19a4.977 4.977 0 0 1 3.974 2h-2.974a2 2 0 0 0 -2 2v2a2 2 0 0 0 2 2h4v2h-3v2h3v1a1 1 0 0 1 -1 1z" data-original="#000000" class="active-path" data-old_color="#000000" fill="#2394C3"/><path d="m38 38h4v2h-4z" data-original="#000000" class="active-path" data-old_color="#000000" fill="#2394C3"/><path d="m14 50h2v2h-2z" data-original="#000000" class="active-path" data-old_color="#000000" fill="#2394C3"/><path d="m48 50h2v2h-2z" data-original="#000000" class="active-path" data-old_color="#000000" fill="#2394C3"/><path d="m16 19a1 1 0 0 0 .707-.293l5-5-1.414-1.414-4.293 4.293-2.293-2.293-1.414 1.414 3 3a1 1 0 0 0 .707.293z" data-original="#000000" class="active-path" data-old_color="#000000" fill="#2394C3"/></g> </svg>
