<?xml version="1.0"?>
<svg xmlns="http://www.w3.org/2000/svg" id="Capa_1" enable-background="new 0 0 512 512" height="512px" viewBox="0 0 512 512" width="512px"><g><g><g><path d="m229.452 79.401 19.438 15.196c1.66 1.679 3.912 2.764 6.416 2.936.042.004.085.003.128.006.188.011.375.029.566.029.021 0 .04-.003.061-.003.025 0 .05.003.076.003 2.195 0 4.392-.721 6.21-2.162l20.252-16.046c4.329-3.43 5.058-9.719 1.628-14.048-3.429-4.329-9.72-5.06-14.048-1.628l-4.179 3.312v-24.222c0-5.523-4.478-10-10-10s-10 4.477-10 10v24.177l-4.229-3.306c-4.353-3.401-10.636-2.632-14.037 1.72-3.402 4.35-2.632 10.635 1.718 14.036z" data-original="#000000" class="active-path" data-old_color="#000000" fill="#1273EB"/><path d="m421.572 335.538c-16.328 0-29.612 13.284-29.612 29.612s13.284 29.612 29.612 29.612 29.612-13.284 29.612-29.612-13.284-29.612-29.612-29.612zm0 39.224c-5.3 0-9.612-4.312-9.612-9.612s4.313-9.612 9.612-9.612 9.612 4.312 9.612 9.612c.001 5.3-4.312 9.612-9.612 9.612z" data-original="#000000" class="active-path" data-old_color="#000000" fill="#1273EB"/><path d="m421.572 410.776c-16.328 0-29.612 13.284-29.612 29.612s13.284 29.612 29.612 29.612 29.612-13.284 29.612-29.612-13.284-29.612-29.612-29.612zm0 39.224c-5.3 0-9.612-4.312-9.612-9.612s4.313-9.612 9.612-9.612 9.612 4.312 9.612 9.612c.001 5.3-4.312 9.612-9.612 9.612z" data-original="#000000" class="active-path" data-old_color="#000000" fill="#1273EB"/><path d="m87.354 335.538c-16.328 0-29.611 13.284-29.611 29.612s13.283 29.612 29.611 29.612 29.612-13.284 29.612-29.612-13.284-29.612-29.612-29.612zm0 39.224c-5.3 0-9.611-4.312-9.611-9.612s4.312-9.612 9.611-9.612 9.612 4.312 9.612 9.612-4.313 9.612-9.612 9.612z" data-original="#000000" class="active-path" data-old_color="#000000" fill="#1273EB"/><path d="m87.354 410.776c-16.328 0-29.611 13.284-29.611 29.612s13.282 29.612 29.611 29.612 29.612-13.284 29.612-29.612-13.284-29.612-29.612-29.612zm0 39.224c-5.3 0-9.611-4.312-9.611-9.612s4.312-9.612 9.611-9.612 9.612 4.312 9.612 9.612-4.313 9.612-9.612 9.612z" data-original="#000000" class="active-path" data-old_color="#000000" fill="#1273EB"/><path d="m267.2 168.93c-1.648-4.02-5.886-6.557-10.208-6.126-4.344.433-7.956 3.724-8.822 7.996-1.774 8.754 8.529 15.248 15.707 10.011 3.672-2.679 5.072-7.684 3.323-11.881z" data-original="#000000" class="active-path" data-old_color="#000000" fill="#1273EB"/><path d="m501.999 182.75c2.652 0 5.196-1.053 7.071-2.929 1.876-1.875 2.93-4.419 2.93-7.071v-123.65c0-5.523-4.478-10-10-10h-180.511v-13.853c0-13.921-11.326-25.247-25.247-25.247h-80.484c-13.921 0-25.247 11.326-25.247 25.247v13.853h-180.511c-5.522 0-10 4.477-10 10v123.65c0 2.652 1.054 5.196 2.93 7.071 1.875 1.875 4.419 2.929 7.071 2.929l43.57-.009v111.807h-24.74c-5.522 0-10 4.477-10 10v187.452h-8.831c-5.522 0-10 4.477-10 10s4.478 10 10 10h492c5.522 0 10-4.477 10-10s-4.478-10-10-10h-12.573v-187.452c0-5.523-4.478-10-10-10h-24.406v-111.808zm-291.488-157.503c0-2.893 2.354-5.247 5.247-5.247h80.484c2.894 0 5.247 2.354 5.247 5.247v80.485c0 2.893-2.354 5.247-5.247 5.247h-80.484c-2.894 0-5.247-2.354-5.247-5.247zm-75.303 466.753h-96.377v-177.452h96.377zm-61.637-197.452v-111.796h26.896v111.796zm279.479 128.961h-40.948l24.34-32.322h16.608zm116.377-108.961v177.452h-96.377v-177.452zm-61.302-20v-111.796h26.896v111.796zm-106.759-131.84c-.036 0-.072 0-.108 0-5.522 0-10 4.477-10 10 0 3.862 2.868 9.992 10.563 10.001l86.304.018v111.822h-25.075c-5.522 0-10 4.477-10 10v66.639h-136.735c-19.939 0-36.161 16.222-36.161 36.161s16.222 36.161 36.161 36.161h136.735v48.49h-197.842v-187.452c0-5.523-4.478-10-10-10h-24.741v-111.82l90.513.022c2.797-.002 5.459-.087 7.87-1.723 2.718-1.844 4.402-4.987 4.402-8.277 0-5.467-4.62-10.02-10.075-10.042-2.279.012-152.567.035-193.177.041v-103.649h170.51v46.633c0 13.921 11.326 25.247 25.247 25.247h80.486c13.921 0 25.247-11.326 25.247-25.247v-46.633h170.51v103.648c-40.146-.005-187.423-.028-190.634-.04zm10.039 228.479-24.341 32.322h-29.815l24.341-32.322zm-54.852 0-24.34 32.322h-15.897c-8.911 0-16.161-7.25-16.161-16.161s7.25-16.161 16.161-16.161z" data-original="#000000" class="active-path" data-old_color="#000000" fill="#1273EB"/></g></g></g> </svg>
