<?xml version="1.0" standalone="no"?>
<!DOCTYPE svg PUBLIC "-//W3C//DTD SVG 20010904//EN"
 "http://www.w3.org/TR/2001/REC-SVG-20010904/DTD/svg10.dtd">
<svg version="1.0" xmlns="http://www.w3.org/2000/svg"
 width="998.000000pt" height="222.000000pt" viewBox="0 0 998.000000 222.000000"
 preserveAspectRatio="xMidYMid meet">
<metadata>
Created by potrace 1.16, written by Peter Selinger 2001-2019
</metadata>
<g transform="translate(0.000000,222.000000) scale(0.100000,-0.100000)"
fill="#000000" stroke="none">
<path d="M9828 1550 l-116 -100 -54 0 c-40 0 -59 -5 -70 -17 -35 -41 -32 -43
44 -43 l73 0 137 119 c101 88 133 122 125 130 -6 6 -14 11 -17 11 -4 0 -58
-45 -122 -100z"/>
<path d="M700 1481 c-8 -17 106 -18 2392 -24 1321 -4 3318 -7 4439 -7 l2037 0
15 24 16 23 -4445 1 c-4229 0 -4445 0 -4454 -17z"/>
<path d="M4855 1290 l-49 -100 -423 0 -423 0 -20 -32 c-26 -43 -25 -58 3 -58
14 0 28 11 39 30 l17 30 423 0 423 0 58 115 57 115 -28 0 c-25 0 -32 -9 -77
-100z"/>
<path d="M5721 980 l-203 -400 -255 0 c-232 0 -257 -2 -269 -17 -7 -10 -14
-21 -14 -25 0 -5 129 -8 288 -8 l287 0 213 425 c210 421 212 425 184 425 -26
0 -37 -18 -231 -400z"/>
<path d="M3279 970 l-202 -400 -153 0 c-141 0 -154 -2 -164 -19 -5 -11 -10
-22 -10 -25 0 -3 81 -6 180 -6 l180 0 210 420 c115 231 210 422 210 425 0 3
-11 5 -24 5 -22 0 -44 -39 -227 -400z"/>
<path d="M9102 1327 c9 -28 7 -46 -6 -89 -10 -29 -122 -258 -249 -508 -247
-487 -269 -520 -366 -574 -109 -59 31 -56 -2616 -56 -2146 -1 -2428 -2 -2410
-15 17 -13 323 -15 2490 -13 l2471 3 76 38 c128 63 138 79 404 608 128 257
237 485 242 506 10 46 -1 93 -27 117 -19 18 -20 17 -9 -17z"/>
<path d="M1859 1327 c-8 -8 -45 -78 -84 -156 l-69 -141 -358 0 -358 0 -117
-235 -118 -235 -256 0 -256 0 -11 -25 -12 -25 280 0 280 0 117 235 118 235
357 0 356 0 86 164 c47 91 87 170 88 177 4 18 -27 22 -43 6z"/>
<path d="M7591 1295 c0 -45 -18 -86 -168 -388 l-168 -338 -535 3 c-494 3 -538
4 -568 21 -33 18 -33 18 -23 -1 6 -11 27 -28 48 -38 36 -18 70 -19 576 -19
l539 0 165 328 c137 271 167 337 171 380 3 42 0 57 -17 77 l-20 25 0 -50z"/>
<path d="M8085 1000 c-52 -104 -95 -192 -95 -195 0 -3 10 -5 23 -5 19 0 36 27
111 175 l89 175 242 0 c199 0 244 3 248 14 3 8 3 17 0 20 -4 3 -123 6 -265 6
l-258 0 -95 -190z"/>
<path d="M6380 1160 c-11 -20 -8 -20 394 -20 359 0 405 2 410 16 3 9 6 18 6
20 0 2 -180 4 -400 4 -389 0 -400 -1 -410 -20z"/>
<path d="M2330 870 l-150 -300 -153 0 -154 0 -11 -25 -12 -25 180 0 180 0 152
305 153 305 242 0 c232 0 243 1 253 20 11 20 8 20 -260 20 l-270 0 -150 -300z"/>
<path d="M6990 970 l-44 -90 -226 0 -226 0 -17 -35 c-22 -46 -22 -45 12 -45
21 0 32 6 36 20 6 19 15 20 233 20 l227 0 53 105 c28 58 52 107 52 110 0 3
-13 5 -28 5 -25 0 -32 -9 -72 -90z"/>
<path d="M4711 1004 c7 -9 13 -37 13 -64 0 -104 -115 -265 -232 -324 -108 -55
-124 -56 -667 -56 -500 0 -525 -2 -525 -33 0 -5 231 -7 538 -5 585 5 575 4
697 65 112 57 225 216 225 317 0 52 -28 116 -51 116 -8 0 -7 -5 2 -16z"/>
<path d="M3598 890 c48 -39 94 -44 422 -45 292 0 315 1 318 18 3 16 -18 17
-340 17 -268 1 -352 4 -383 15 l-40 14 23 -19z"/>
<path d="M2466 854 c-3 -9 -6 -18 -6 -20 0 -2 88 -4 195 -4 184 0 195 1 205
20 11 20 8 20 -189 20 -172 0 -200 -2 -205 -16z"/>
<path d="M7643 582 c4 -6 26 -18 50 -26 36 -14 89 -16 371 -14 246 2 330 6
333 15 3 9 -81 13 -359 15 -200 2 -372 7 -382 12 -13 7 -17 6 -13 -2z"/>
<path d="M1319 265 c-24 -13 -59 -69 -59 -94 0 -6 10 -15 21 -22 52 -27 154
42 147 100 -3 23 -8 26 -43 28 -22 2 -52 -4 -66 -12z"/>
</g>
</svg>
