<?xml version="1.0"?>
<svg xmlns="http://www.w3.org/2000/svg" xmlns:xlink="http://www.w3.org/1999/xlink" width="512px" height="512px" viewBox="0 0 56 56" version="1.1" class=""><g><title class="active-path" style="">033 - Insurance</title><desc class="active-path">Created with Sketch.</desc><defs class="active-path"/><g id="Page-1" stroke="none" stroke-width="1" fill="none" fill-rule="evenodd"><g id="033---Insurance" fill="#000000" fill-rule="nonzero"><path d="M35.93,25.309 C37.2273464,24.3707907 37.9969382,22.8680418 38,21.267 L38,8.835 L28,4.458 L18,8.835 L18,21.267 C18.0030618,22.8680418 18.7726536,24.3707907 20.07,25.309 L28,31.029 L35.93,25.309 Z M26.169,23.986 C26.1131258,23.9951303 26.056615,23.9998117 26,24 C25.7836298,24 25.5730962,23.9298221 25.4,23.8 L21.4,20.8 C20.9581722,20.4686291 20.8686292,19.8418278 21.2,19.4 C21.5313709,18.9581722 22.1581722,18.8686292 22.6,19.2 L25.754,21.566 L33.168,10.445 C33.474518,9.98549909 34.0954991,9.86148196 34.555,10.168 C35.0145009,10.474518 35.138518,11.0954991 34.832,11.555 L26.832,23.555 C26.6796036,23.783657 26.4398302,23.9395277 26.169,23.986 Z" id="Shape" data-original="#000000" class="active-path" fill="#0385E1"/><path d="M38.27,28.553 C40.6085528,26.8619467 41.9954196,24.1529088 42,21.267 L42,6.22 L28,0.092 L14,6.22 L14,21.267 C14.0045804,24.1529088 15.3914472,26.8619467 17.73,28.553 L28,35.96 L38.27,28.553 Z M18.9,26.931 C17.0814764,25.6168612 16.003086,23.5106532 16,21.267 L16,8.182 C16.0002048,7.78456483 16.2357446,7.42497404 16.6,7.266 L27.6,2.45 C27.8550505,2.33868685 28.1449495,2.33868685 28.4,2.45 L39.4,7.266 C39.7642554,7.42497404 39.9997952,7.78456483 40,8.182 L40,21.267 C39.996914,23.5106532 38.9185236,25.6168612 37.1,26.931 L28.585,33.073 C28.2356934,33.3249556 27.7643066,33.3249556 27.415,33.073 L18.9,26.931 Z" id="Shape" data-original="#000000" class="active-path" fill="#0385E1"/><path d="M23,48 L12,48 L12,56 L23,56 L23,48 Z M20,53 L19,53 C18.4477153,53 18,52.5522847 18,52 C18,51.4477153 18.4477153,51 19,51 L20,51 C20.5522847,51 21,51.4477153 21,52 C21,52.5522847 20.5522847,53 20,53 Z" id="Shape" data-original="#000000" class="active-path" fill="#0385E1"/><path d="M2.283,26.934 C2.09651136,26.4964366 1.66664654,26.2126156 1.191,26.213 C0.786820495,26.2131465 0.410394408,26.4186059 0.191637144,26.7584681 C-0.0271201206,27.0983304 -0.0582467293,27.5260467 0.109,27.894 L4.028,36.515 C4.45820511,37.463331 5.05613326,38.3261769 5.793,39.062 L12.731,46 L21,46 L21,44.139 C21.0301832,42.2251802 20.412398,40.3573757 19.247,38.839 C18.6352544,38.0239652 17.7996453,37.4044679 16.842,37.056 C14.4918904,36.0996763 12.3313425,34.731555 10.462,33.016 C9.52683088,32.2454194 8.18333621,32.2230209 7.223,32.962 C7.5836624,33.5013381 7.99666328,34.0037722 8.456,34.462 L13.024,39.031 C13.2839566,39.2820745 13.3882126,39.6538779 13.2966972,40.0035073 C13.2051817,40.3531368 12.9321368,40.6261817 12.5825073,40.7176972 C12.2328779,40.8092126 11.8610745,40.7049566 11.61,40.445 L7.042,35.876 C5.97024427,34.8075456 5.11402167,33.5429028 4.52,32.151 L2.283,26.934 Z" id="Shape" data-original="#000000" class="active-path" fill="#0385E1"/><path d="M51.972,36.515 L55.891,27.894 C56.0582467,27.5260467 56.0271201,27.0983304 55.8083629,26.7584681 C55.5896056,26.4186059 55.2131795,26.2131465 54.809,26.213 C54.3336729,26.2127095 53.9040073,26.4960055 53.717,26.933 L51.48,32.151 C50.8859783,33.5429028 50.0297557,34.8075456 48.958,35.876 L44.39,40.445 C43.9976211,40.8239722 43.3739152,40.8185524 42.9881814,40.4328186 C42.6024476,40.0470848 42.5970278,39.4233789 42.976,39.031 L47.544,34.462 C48.0062252,34.0011563 48.4212837,33.4953142 48.783,32.952 C47.8194192,32.2124035 46.4721478,32.2385601 45.538,33.015 C43.6684757,34.730809 41.5075524,36.0989535 39.157,37.055 C38.2012635,37.4044671 37.3675264,38.0238642 36.757,38.838 C35.5899578,40.356123 34.9707349,42.2243646 35,44.139 L35,46 L43.269,46 L50.207,39.062 C50.9438667,38.3261769 51.5417949,37.463331 51.972,36.515 Z" id="Shape" data-original="#000000" class="active-path" fill="#0385E1"/><path d="M44,48 L33,48 L33,56 L44,56 L44,48 Z M37,53 L36,53 C35.4477153,53 35,52.5522847 35,52 C35,51.4477153 35.4477153,51 36,51 L37,51 C37.5522847,51 38,51.4477153 38,52 C38,52.5522847 37.5522847,53 37,53 Z" id="Shape" data-original="#000000" class="active-path" fill="#0385E1"/></g></g></g> </svg>
