<?xml version="1.0"?>
<svg xmlns="http://www.w3.org/2000/svg" xmlns:xlink="http://www.w3.org/1999/xlink" version="1.1" id="Capa_1" x="0px" y="0px" viewBox="0 0 512 512" style="enable-background:new 0 0 512 512;" xml:space="preserve" width="512px" height="512px"><g><g>
	<g>
		<path d="M469.944,493.092L442.169,366.21c-7.184,8.867-14.836,17.395-22.963,25.522c-42.694,42.694-96.206,72.645-154.226,86.933    v17.758c0,8.602,6.974,15.576,15.576,15.576h174.17c4.715,0,9.178-2.137,12.135-5.811    C469.819,502.515,470.951,497.7,469.944,493.092z" data-original="#000000" class="active-path" data-old_color="#000000" fill="#0385E1"/>
	</g>
</g><g>
	<g>
		<path d="M438.773,0L27.483,411.291c47.458,29.881,102.742,45.751,158.953,45.751c8.384,0,16.789-0.353,25.191-1.064    c69.946-5.925,135.843-36.564,185.552-86.274c49.709-49.709,80.349-115.606,86.274-185.551    C488.936,119.417,473.112,54.537,438.773,0z" data-original="#000000" class="active-path" data-old_color="#000000" fill="#0385E1"/>
	</g>
</g><g>
	<g>
		<path d="M184.69,135.186c12.691-22.366,9.529-51.357-9.517-70.402c-22.86-22.86-60.052-22.86-82.913,0    c-22.86,22.859-22.86,60.054,0,82.913c11.43,11.431,26.443,17.144,41.456,17.144c10.004,0,20.001-2.552,28.945-7.627l37.42,37.419    l22.028-22.028L184.69,135.186z" data-original="#000000" class="active-path" data-old_color="#000000" fill="#0385E1"/>
	</g>
</g></g> </svg>
