<svg id="Layer_1" height="512" viewBox="0 0 512 512" width="512" xmlns="http://www.w3.org/2000/svg" data-name="Layer 1"><path d="m309.509 400.183c-4.523-10.647-7.014-21.585-7.014-30.8v-98.308l93.913-50.267-19.917-9.772-94 45.989v89.864c0 8.423 2.491 18.421 7.014 28.153 5.413 11.651 13.086 21.726 21.328 28.126q-.678-1.477-1.324-2.985z" fill="#d4e1f4"/><path d="m286.817 382.842a6 6 0 0 0 -5.55-10.639 164.391 164.391 0 0 1 -75.762 18.509c-90.43 0-164-73.57-164-164s73.57-164 164-164c82.18 0 152.1 61.358 162.634 142.724a6 6 0 1 0 11.9-1.541c-11.309-87.329-86.339-153.183-174.534-153.183-97.047 0-176 78.953-176 176s78.953 176 176 176a176.433 176.433 0 0 0 81.312-19.87z" fill="#0635c9"/><path d="m258.823 152.4a6 6 0 0 0 .064-12l-75.427-.808-30.235-.325h-.066a6 6 0 0 0 -.063 12l30.235.325a39.4 39.4 0 0 1 38.52 33.752l-69.113-.741h-.065a6 6 0 0 0 -.064 12l69.115.741a39.346 39.346 0 0 1 -39.237 32.918l-30.234-.324h-.065a6 6 0 0 0 -4.167 10.316l74.8 72.221a6 6 0 1 0 8.336-8.633l-63.949-61.742 15.15.162a51.321 51.321 0 0 0 51.462-44.787l24.452.262h.066a6 6 0 0 0 .063-12l-24.456-.262a51.291 51.291 0 0 0 -17.677-33.529l42.49.455z" fill="#0635c9"/><g fill="#1ae5be"><path d="m479.138 248.034-100-49.067a6.007 6.007 0 0 0 -5.28 0l-100 48.928a6 6 0 0 0 -3.363 5.389v93.608c0 10.279 2.812 21.763 8.131 33.21 6.815 14.668 16.957 27.325 27.824 34.725l66.667 45.423a6 6 0 0 0 6.756 0l66.666-45.421c20.161-13.736 35.961-43.578 35.961-67.94v-93.468a6 6 0 0 0 -3.362-5.387zm-8.638 98.855c0 20.111-14.064 46.679-30.712 58.019l-63.288 43.119-63.289-43.12c-9.131-6.219-17.768-17.1-23.7-29.865-4.523-9.732-7.014-19.73-7.014-28.153v-89.864l94-45.989 94 46.124z"/><path d="m338.371 322.6a6 6 0 0 0 -8.379 8.589l30.208 29.466a6 6 0 0 0 8.379 0l54.421-53.078a6 6 0 1 0 -8.379-8.59l-50.23 48.992z"/></g></svg>