<?xml version="1.0" encoding="iso-8859-1"?>
<!-- Generator: Adobe Illustrator 19.0.0, SVG Export Plug-In . SVG Version: 6.00 Build 0)  -->
<svg version="1.1" id="Capa_1" xmlns="http://www.w3.org/2000/svg" xmlns:xlink="http://www.w3.org/1999/xlink" x="0px" y="0px"
	 viewBox="0 0 503.61 503.61" style="enable-background:new 0 0 503.61 503.61;" xml:space="preserve">
<g>
	<path style="fill:#D4E1F4;" d="M428.067,251.806h50.361c9.271,0,16.787,7.516,16.787,16.787v67.148
		c0,9.271-7.516,16.787-16.787,16.787h-50.361c-27.813,0-50.361-22.547-50.361-50.361l0,0
		C377.706,274.354,400.254,251.806,428.067,251.806L428.067,251.806z"/>
	<path style="fill:#7FACFA;" d="M478.428,251.806h-25.18c9.271,0,16.787,7.516,16.787,16.787v67.148
		c0,9.271-7.516,16.786-16.787,16.787h25.18c9.271,0,16.786-7.516,16.787-16.787v-67.148
		C495.215,259.322,487.699,251.806,478.428,251.806L478.428,251.806z"/>
	<path style="fill:#D4E1F4;" d="M428.067,352.528c-27.813,0-50.361-22.547-50.361-50.361c0-27.813,22.547-50.361,50.361-50.361
		h50.361V125.905c0-9.271-7.516-16.787-16.787-16.787H41.969c-8.904,0-17.444,3.537-23.74,9.833
		c-6.296,6.296-9.834,14.836-9.833,23.74v318.951c0,18.542,15.031,33.574,33.574,33.574h419.672c9.271,0,16.787-7.516,16.787-16.787
		V352.528H428.067z"/>
	<g>
		<path style="fill:#7FACFA;" d="M453.247,478.429c0,9.271-7.516,16.786-16.787,16.787h25.18c9.271,0,16.786-7.516,16.787-16.787
			V352.528h-25.18V478.429z"/>
		<path style="fill:#7FACFA;" d="M461.641,109.118h-25.18c9.271,0,16.787,7.516,16.787,16.787v125.902h25.18V125.905
			C478.428,116.634,470.912,109.118,461.641,109.118z"/>
	</g>
	<path style="fill:#FFFFFF;" d="M41.969,461.642V142.692c0-8.904,3.537-17.444,9.833-23.741c6.296-6.296,14.836-9.833,23.741-9.833
		H41.969c-8.904,0-17.444,3.537-23.741,9.833s-9.834,14.836-9.833,23.741v318.951c0,18.542,15.031,33.574,33.574,33.574h33.574
		C57,495.216,41.969,480.185,41.969,461.642z"/>
	<polygon style="fill:#A4C2F7;" points="405.402,109.121 376.201,30.222 171.166,109.121 	"/>
	<polygon style="fill:#7FACFA;" points="171.166,109.121 330.339,47.874 305.721,8.399 144.248,109.121 	"/>
	<g>
		<path style="fill:#428DFF;" d="M423.272,470.036h-16.787c-4.636,0-8.393-3.758-8.393-8.393c0-4.636,3.758-8.393,8.393-8.393
			h16.787c4.636,0,8.393,3.758,8.393,8.393C431.665,466.278,427.907,470.036,423.272,470.036z M364.518,470.036h-16.787
			c-4.636,0-8.393-3.758-8.393-8.393c0-4.636,3.758-8.393,8.393-8.393h16.787c4.636,0,8.393,3.758,8.393,8.393
			C372.911,466.278,369.153,470.036,364.518,470.036z M305.763,470.036h-16.787c-4.636,0-8.393-3.758-8.393-8.393
			c0-4.636,3.758-8.393,8.393-8.393h16.787c4.636,0,8.393,3.758,8.393,8.393C314.157,466.278,310.399,470.036,305.763,470.036z
			 M247.009,470.036h-16.787c-4.636,0-8.393-3.758-8.393-8.393c0-4.636,3.758-8.393,8.393-8.393h16.787
			c4.636,0,8.393,3.758,8.393,8.393C255.403,466.278,251.645,470.036,247.009,470.036z M188.255,470.036h-16.787
			c-4.636,0-8.393-3.758-8.393-8.393c0-4.636,3.758-8.393,8.393-8.393h16.787c4.636,0,8.393,3.758,8.393,8.393
			C196.649,466.278,192.891,470.036,188.255,470.036z M129.501,470.036h-16.787c-4.636,0-8.393-3.758-8.393-8.393
			c0-4.636,3.758-8.393,8.393-8.393h16.787c4.636,0,8.393,3.758,8.393,8.393C137.895,466.278,134.137,470.036,129.501,470.036z
			 M70.764,469.7c-0.395,0.001-0.789-0.027-1.18-0.082c-6.969-0.992-13.574-3.727-19.205-7.951
			c-2.398-1.801-3.654-4.745-3.293-7.722s2.282-5.537,5.041-6.713c2.759-1.177,5.936-0.792,8.334,1.009
			c3.361,2.526,7.305,4.161,11.467,4.754c4.364,0.615,7.509,4.499,7.203,8.895C78.824,466.286,75.171,469.696,70.764,469.7
			L70.764,469.7z M41.969,425.667c-2.226,0.001-4.362-0.883-5.936-2.457c-1.574-1.574-2.458-3.71-2.457-5.936v-16.787
			c0-4.636,3.758-8.393,8.393-8.393s8.393,3.758,8.393,8.393v16.787c0.001,2.226-0.883,4.362-2.457,5.936
			C46.331,424.784,44.195,425.668,41.969,425.667L41.969,425.667z M41.969,366.913c-2.226,0.001-4.362-0.883-5.936-2.457
			c-1.574-1.574-2.458-3.71-2.457-5.937v-16.787c0-4.636,3.758-8.393,8.393-8.393s8.393,3.758,8.393,8.393v16.787
			c0.001,2.226-0.883,4.362-2.457,5.936C46.331,366.03,44.195,366.914,41.969,366.913L41.969,366.913z M41.969,308.159
			c-2.226,0.001-4.362-0.883-5.936-2.457c-1.574-1.574-2.458-3.71-2.457-5.937v-16.787c0-4.636,3.758-8.393,8.393-8.393
			s8.393,3.758,8.393,8.393v16.787c0.001,2.226-0.883,4.362-2.457,5.936C46.331,307.276,44.195,308.16,41.969,308.159
			L41.969,308.159z M41.969,249.405c-2.226,0.001-4.362-0.883-5.936-2.457s-2.458-3.71-2.457-5.936v-16.787
			c0-4.636,3.758-8.393,8.393-8.393s8.393,3.758,8.393,8.393v16.787c0.001,2.226-0.883,4.362-2.457,5.936
			C46.331,248.522,44.195,249.406,41.969,249.405L41.969,249.405z M41.969,190.651c-2.226,0.001-4.362-0.883-5.936-2.457
			c-1.574-1.574-2.458-3.71-2.457-5.936v-5.992c-0.002-4.501,0.718-8.973,2.131-13.246c1.491-4.355,6.211-6.696,10.58-5.249
			c4.369,1.447,6.758,6.144,5.354,10.528c-0.852,2.57-1.284,5.26-1.279,7.967v5.992c0.001,2.226-0.883,4.362-2.457,5.936
			C46.331,189.768,44.195,190.652,41.969,190.651L41.969,190.651z M444.854,151.085h-16.787c-4.636,0-8.393-3.758-8.393-8.393
			c0-4.636,3.758-8.393,8.393-8.393h16.787c4.636,0,8.393,3.758,8.393,8.393C453.247,147.327,449.49,151.085,444.854,151.085z
			 M386.1,151.085h-16.787c-4.636,0-8.393-3.758-8.393-8.393c0-4.636,3.758-8.393,8.393-8.393H386.1
			c4.636,0,8.393,3.758,8.393,8.393C394.493,147.327,390.735,151.085,386.1,151.085z M327.346,151.085h-16.787
			c-4.636,0-8.393-3.758-8.393-8.393c0-4.636,3.758-8.393,8.393-8.393h16.787c4.636,0,8.393,3.758,8.393,8.393
			C335.739,147.327,331.981,151.085,327.346,151.085z M268.592,151.085h-16.787c-4.636,0-8.393-3.758-8.393-8.393
			c0-4.636,3.758-8.393,8.393-8.393h16.787c4.636,0,8.393,3.758,8.393,8.393C276.985,147.327,273.227,151.085,268.592,151.085z
			 M209.838,151.085h-16.787c-4.636,0-8.393-3.758-8.393-8.393c0-4.636,3.758-8.393,8.393-8.393h16.787
			c4.636,0,8.393,3.758,8.393,8.393C218.231,147.327,214.473,151.085,209.838,151.085z M151.083,151.085h-16.787
			c-4.636,0-8.393-3.758-8.393-8.393c0-4.636,3.758-8.393,8.393-8.393h16.787c4.636,0,8.393,3.758,8.393,8.393
			C159.477,147.327,155.719,151.085,151.083,151.085z M92.329,151.085H75.543c-4.636,0-8.393-3.758-8.393-8.393
			c0-4.636,3.758-8.393,8.393-8.393h16.787c4.636,0,8.393,3.758,8.393,8.393C100.723,147.327,96.965,151.085,92.329,151.085z"/>
		<path style="fill:#428DFF;" d="M478.428,360.921h-50.361c-20.991,0-40.387-11.198-50.883-29.377
			c-10.495-18.179-10.495-40.576,0-58.754c10.495-18.179,29.892-29.377,50.883-29.377h50.361c13.9,0.015,25.165,11.28,25.18,25.18
			v67.148C503.593,349.641,492.328,360.906,478.428,360.921z M428.067,260.2c-14.993,0-28.848,7.999-36.345,20.984
			c-7.497,12.985-7.497,28.982,0,41.967c7.497,12.985,21.351,20.984,36.345,20.984h50.361c4.634-0.003,8.39-3.759,8.393-8.393
			v-67.148c-0.003-4.634-3.759-8.39-8.393-8.393H428.067z"/>
		<path style="fill:#428DFF;" d="M461.641,503.61H41.969c-23.167-0.027-41.94-18.801-41.967-41.967V142.692
			c0.027-23.167,18.801-41.94,41.967-41.967h419.672c13.9,0.015,25.165,11.28,25.18,25.18v125.902
			c0.001,2.226-0.883,4.362-2.457,5.936s-3.71,2.458-5.936,2.457h-50.361c-23.178,0-41.967,18.789-41.967,41.967
			c0,23.178,18.789,41.967,41.967,41.967h50.361c2.227-0.001,4.362,0.883,5.936,2.457s2.458,3.71,2.457,5.937v125.902
			C486.806,492.33,475.541,503.594,461.641,503.61z M41.969,117.511c-13.9,0.015-25.165,11.28-25.18,25.18v318.951
			c0.015,13.9,11.28,25.165,25.18,25.18h419.672c4.634-0.003,8.39-3.759,8.393-8.393V360.921h-41.967
			c-32.449,0-58.754-26.305-58.754-58.754c0-32.449,26.305-58.754,58.754-58.754h41.967V125.905
			c-0.003-4.634-3.759-8.39-8.393-8.393H41.969z"/>
		<path style="fill:#428DFF;" d="M405.395,117.511H171.174c-4.045,0-7.515-2.884-8.254-6.861c-0.739-3.977,1.463-7.915,5.238-9.369
			l205.025-78.893c2.096-0.806,4.427-0.739,6.473,0.187c2.046,0.926,3.635,2.633,4.413,4.739l29.197,78.894
			c0.952,2.575,0.584,5.452-0.984,7.705C410.711,116.166,408.14,117.51,405.395,117.511L405.395,117.511z M216.354,100.724h176.984
			L371.28,41.11L216.354,100.724z"/>
		<path style="fill:#428DFF;" d="M171.165,117.511h-26.918c-3.745-0.002-7.036-2.484-8.066-6.085
			c-1.031-3.6,0.447-7.448,3.624-9.432L301.28,1.273c1.889-1.179,4.169-1.56,6.338-1.057c2.169,0.503,4.05,1.847,5.227,3.737
			l24.623,39.475c1.324,2.126,1.631,4.731,0.836,7.106c-0.794,2.375-2.607,4.272-4.943,5.173l-159.181,61.246
			C173.219,117.322,172.197,117.511,171.165,117.511z M303.043,19.962L179.936,96.749l137.91-53.057L303.043,19.962z"/>
		<path style="fill:#428DFF;" d="M453.247,310.56h-33.574c-4.636,0-8.393-3.758-8.393-8.393c0-4.636,3.758-8.393,8.393-8.393h33.574
			c4.636,0,8.393,3.758,8.393,8.393C461.641,306.803,457.883,310.56,453.247,310.56z"/>
	</g>
</g>
<g>
</g>
<g>
</g>
<g>
</g>
<g>
</g>
<g>
</g>
<g>
</g>
<g>
</g>
<g>
</g>
<g>
</g>
<g>
</g>
<g>
</g>
<g>
</g>
<g>
</g>
<g>
</g>
<g>
</g>
</svg>
